<svg width="512" height="512" viewBox="0 0 512 512" fill="none" xmlns="http://www.w3.org/2000/svg">
<g clip-path="url(#clip0_803_572)">
<path d="M118.891 -0.331055C118.891 53.7375 162.721 97.5688 216.789 97.5713V97.5723C162.721 97.5747 118.891 141.406 118.891 195.475H118.883C118.883 141.406 75.0524 97.5748 20.9844 97.5723V97.5713C75.0522 97.5688 118.883 53.7383 118.883 -0.330078V-0.331055H118.891Z" fill="#48A3FE"/>
<path d="M282.939 103.586C283.385 216.125 374.753 307.218 487.397 307.218C487.4 307.218 487.402 307.217 487.404 307.217V307.219C487.402 307.219 487.4 307.219 487.397 307.219C374.753 307.219 283.385 398.312 282.939 510.852C282.494 398.313 191.128 307.22 78.4844 307.219V307.217C191.128 307.216 282.494 216.125 282.939 103.586Z" fill="#48A3FE"/>
</g>
<defs>
<clipPath id="clip0_803_572">
<rect width="512" height="512" fill="white"/>
</clipPath>
</defs>
</svg>
