<svg width="384" height="153" viewBox="0 0 384 153" fill="none" xmlns="http://www.w3.org/2000/svg">
<path d="M-0.001875 70L22.1581 14H33.6781L55.6781 70H41.9181L31.3581 41.6C30.9315 40.48 30.5048 39.28 30.0781 38C29.6515 36.72 29.2248 35.4133 28.7981 34.08C28.3715 32.6933 27.9448 31.36 27.5181 30.08C27.1448 28.7467 26.8248 27.52 26.5581 26.4L28.9581 26.32C28.6381 27.6533 28.2648 28.96 27.8381 30.24C27.4648 31.52 27.0648 32.8 26.6381 34.08C26.2648 35.3067 25.8381 36.56 25.3581 37.84C24.8781 39.0667 24.4248 40.3467 23.9981 41.68L13.4381 70H-0.001875ZM10.5581 59.28L14.7981 49.04H40.5581L44.7181 59.28H10.5581ZM62.665 70V14H101.705V25.6H75.865V58.4H102.505V70H62.665ZM69.065 47.04V36H98.105V47.04H69.065ZM114.228 70V14H139.428C143.001 14 146.228 14.7733 149.108 16.32C152.041 17.8667 154.334 20 155.988 22.72C157.641 25.3867 158.468 28.4267 158.468 31.84C158.468 35.36 157.641 38.5333 155.988 41.36C154.334 44.1333 152.068 46.32 149.188 47.92C146.308 49.52 143.054 50.32 139.428 50.32H127.188V70H114.228ZM145.268 70L131.028 44.72L144.948 42.72L160.788 70H145.268ZM127.188 39.92H138.228C139.614 39.92 140.814 39.6267 141.828 39.04C142.894 38.4 143.694 37.52 144.228 36.4C144.814 35.28 145.108 34 145.108 32.56C145.108 31.12 144.788 29.8667 144.148 28.8C143.508 27.68 142.574 26.8267 141.348 26.24C140.174 25.6533 138.734 25.36 137.028 25.36H127.188V39.92ZM195.138 70.8C190.871 70.8 186.978 70.08 183.458 68.64C179.938 67.2 176.871 65.1733 174.258 62.56C171.645 59.9467 169.618 56.88 168.178 53.36C166.738 49.84 166.018 45.9733 166.018 41.76C166.018 37.5467 166.738 33.68 168.178 30.16C169.618 26.64 171.645 23.5733 174.258 20.96C176.871 18.3467 179.938 16.32 183.458 14.88C186.978 13.44 190.845 12.72 195.058 12.72C199.271 12.72 203.138 13.44 206.658 14.88C210.178 16.32 213.245 18.3467 215.858 20.96C218.471 23.5733 220.471 26.64 221.858 30.16C223.298 33.68 224.018 37.5467 224.018 41.76C224.018 45.92 223.298 49.7867 221.858 53.36C220.471 56.88 218.471 59.9467 215.858 62.56C213.245 65.1733 210.178 67.2 206.658 68.64C203.138 70.08 199.298 70.8 195.138 70.8ZM195.058 58C197.245 58 199.245 57.6 201.058 56.8C202.925 56 204.525 54.88 205.858 53.44C207.245 51.9467 208.311 50.2133 209.058 48.24C209.805 46.2667 210.178 44.1067 210.178 41.76C210.178 39.4133 209.805 37.2533 209.058 35.28C208.311 33.3067 207.245 31.6 205.858 30.16C204.525 28.6667 202.925 27.52 201.058 26.72C199.245 25.92 197.245 25.52 195.058 25.52C192.871 25.52 190.845 25.92 188.978 26.72C187.165 27.52 185.565 28.6667 184.178 30.16C182.791 31.6 181.725 33.3067 180.978 35.28C180.285 37.2533 179.938 39.4133 179.938 41.76C179.938 44.1067 180.285 46.2933 180.978 48.32C181.725 50.2933 182.791 52 184.178 53.44C185.565 54.88 187.165 56 188.978 56.8C190.845 57.6 192.871 58 195.058 58ZM234.54 70V14H259.26C263.1 14 266.353 14.56 269.02 15.68C271.687 16.7467 273.687 18.32 275.02 20.4C276.407 22.4267 277.1 24.88 277.1 27.76C277.1 30.96 276.3 33.6533 274.7 35.84C273.153 38.0267 270.887 39.4933 267.9 40.24L267.74 38.72C270.247 39.2533 272.407 40.1867 274.22 41.52C276.087 42.8533 277.527 44.5067 278.54 46.48C279.553 48.4 280.06 50.5867 280.06 53.04C280.06 55.8667 279.58 58.3467 278.62 60.48C277.66 62.56 276.273 64.32 274.46 65.76C272.647 67.2 270.513 68.2667 268.06 68.96C265.66 69.6533 262.993 70 260.06 70H234.54ZM247.34 58.64H259.58C261.073 58.64 262.327 58.4 263.34 57.92C264.407 57.44 265.233 56.7467 265.82 55.84C266.407 54.88 266.7 53.7333 266.7 52.4C266.7 51.1733 266.38 50.1333 265.74 49.28C265.153 48.4267 264.3 47.7867 263.18 47.36C262.06 46.88 260.727 46.64 259.18 46.64H247.34V58.64ZM247.34 36.48H257.34C258.727 36.48 259.9 36.2667 260.86 35.84C261.873 35.36 262.62 34.72 263.1 33.92C263.633 33.0667 263.9 32.0533 263.9 30.88C263.9 29.1733 263.313 27.84 262.14 26.88C260.967 25.8667 259.207 25.36 256.86 25.36H247.34V36.48ZM289.514 70V58.56H298.954V25.44H289.514V14H322.074V25.44H312.554V58.56H322.074V70H289.514ZM359.277 70.8C355.064 70.8 351.17 70.1067 347.597 68.72C344.077 67.28 341.01 65.28 338.397 62.72C335.784 60.1067 333.757 57.04 332.317 53.52C330.93 49.9467 330.237 46.0267 330.237 41.76C330.237 37.6 330.984 33.76 332.477 30.24C333.97 26.72 336.024 23.68 338.637 21.12C341.304 18.5067 344.424 16.48 347.997 15.04C351.624 13.6 355.57 12.88 359.837 12.88C362.504 12.88 365.117 13.2267 367.677 13.92C370.237 14.6133 372.61 15.6533 374.797 17.04C377.037 18.3733 378.957 19.9733 380.557 21.84L372.237 31.36C371.117 30.1867 369.917 29.1733 368.637 28.32C367.41 27.4133 366.05 26.72 364.557 26.24C363.064 25.76 361.464 25.52 359.757 25.52C357.624 25.52 355.597 25.92 353.677 26.72C351.81 27.4667 350.157 28.56 348.717 30C347.33 31.3867 346.237 33.0933 345.437 35.12C344.637 37.1467 344.237 39.4133 344.237 41.92C344.237 44.3733 344.637 46.6133 345.437 48.64C346.237 50.6133 347.357 52.32 348.797 53.76C350.237 55.2 351.97 56.2933 353.997 57.04C356.077 57.7867 358.37 58.16 360.877 58.16C362.584 58.16 364.21 57.92 365.757 57.44C367.304 56.96 368.717 56.32 369.997 55.52C371.33 54.6667 372.504 53.7067 373.517 52.64L380.077 63.04C378.744 64.5333 376.957 65.8667 374.717 67.04C372.53 68.2133 370.077 69.1467 367.357 69.84C364.69 70.48 361.997 70.8 359.277 70.8Z" fill="#48A3FE"/>
<path d="M25.6781 143.8C21.9981 143.8 18.6648 143.373 15.6781 142.52C12.7448 141.613 10.1315 140.333 7.83813 138.68C5.54479 136.973 3.49146 134.973 1.67813 132.68L9.91813 123.32C12.5848 126.893 15.2515 129.293 17.9181 130.52C20.6381 131.747 23.4381 132.36 26.3181 132.36C27.7581 132.36 29.0648 132.173 30.2381 131.8C31.4115 131.427 32.3181 130.893 32.9581 130.2C33.5981 129.453 33.9181 128.547 33.9181 127.48C33.9181 126.68 33.7048 125.96 33.2781 125.32C32.9048 124.68 32.3715 124.12 31.6781 123.64C30.9848 123.16 30.1581 122.733 29.1981 122.36C28.2381 121.933 27.2248 121.587 26.1581 121.32C25.0915 121 23.9981 120.733 22.8781 120.52C19.7848 119.827 17.0915 118.973 14.7981 117.96C12.5048 116.947 10.5848 115.72 9.03813 114.28C7.54479 112.787 6.42479 111.107 5.67813 109.24C4.93146 107.32 4.55813 105.187 4.55813 102.84C4.55813 100.333 5.11813 98.04 6.23813 95.96C7.41146 93.8267 8.95813 92.0133 10.8781 90.52C12.8515 88.9733 15.1181 87.8 17.6781 87C20.2381 86.1467 22.9048 85.72 25.6781 85.72C29.3581 85.72 32.5048 86.12 35.1181 86.92C37.7848 87.6667 40.0515 88.76 41.9181 90.2C43.8381 91.64 45.4648 93.3733 46.7981 95.4L38.3981 103.48C37.2781 102.093 36.0515 100.947 34.7181 100.04C33.4381 99.1333 32.0515 98.44 30.5581 97.96C29.1181 97.48 27.6248 97.24 26.0781 97.24C24.4781 97.24 23.0915 97.4533 21.9181 97.88C20.7981 98.2533 19.9181 98.8133 19.2781 99.56C18.6381 100.253 18.3181 101.107 18.3181 102.12C18.3181 103.027 18.5848 103.8 19.1181 104.44C19.6515 105.08 20.3715 105.667 21.2781 106.2C22.1848 106.68 23.2248 107.107 24.3981 107.48C25.5715 107.8 26.7981 108.067 28.0781 108.28C31.0115 108.867 33.6515 109.64 35.9981 110.6C38.3981 111.56 40.4515 112.733 42.1581 114.12C43.9181 115.507 45.2515 117.16 46.1581 119.08C47.1181 120.947 47.5981 123.133 47.5981 125.64C47.5981 129.533 46.6381 132.84 44.7181 135.56C42.8515 138.227 40.2648 140.28 36.9581 141.72C33.7048 143.107 29.9448 143.8 25.6781 143.8ZM62.6212 143V87H86.7813C90.3013 87 93.4213 87.8 96.1413 89.4C98.9146 91 101.101 93.1867 102.701 95.96C104.355 98.7333 105.181 101.853 105.181 105.32C105.181 108.947 104.355 112.2 102.701 115.08C101.101 117.907 98.9146 120.147 96.1413 121.8C93.4213 123.453 90.3013 124.28 86.7813 124.28H76.2213V143H62.6212ZM75.9813 112.36H84.8613C86.0346 112.36 87.1013 112.067 88.0613 111.48C89.0213 110.893 89.7946 110.093 90.3813 109.08C90.9679 108.067 91.2613 106.893 91.2613 105.56C91.2613 104.173 90.9679 103 90.3813 102.04C89.7946 101.08 89.0213 100.333 88.0613 99.8C87.1013 99.2667 86.0346 99 84.8613 99H75.9813V112.36ZM108.036 143L130.196 87H141.716L163.716 143H149.956L139.396 114.6C138.969 113.48 138.542 112.28 138.116 111C137.689 109.72 137.262 108.413 136.836 107.08C136.409 105.693 135.982 104.36 135.556 103.08C135.182 101.747 134.862 100.52 134.596 99.4L136.996 99.32C136.676 100.653 136.302 101.96 135.876 103.24C135.502 104.52 135.102 105.8 134.676 107.08C134.302 108.307 133.876 109.56 133.396 110.84C132.916 112.067 132.462 113.347 132.036 114.68L121.476 143H108.036ZM118.596 132.28L122.836 122.04H148.596L152.756 132.28H118.596ZM199.38 143.8C195.167 143.8 191.273 143.107 187.7 141.72C184.18 140.28 181.113 138.28 178.5 135.72C175.887 133.107 173.86 130.04 172.42 126.52C171.033 122.947 170.34 119.027 170.34 114.76C170.34 110.6 171.087 106.76 172.58 103.24C174.073 99.72 176.127 96.68 178.74 94.12C181.407 91.5067 184.527 89.48 188.1 88.04C191.727 86.6 195.673 85.88 199.94 85.88C202.607 85.88 205.22 86.2267 207.78 86.92C210.34 87.6133 212.713 88.6533 214.9 90.04C217.14 91.3733 219.06 92.9733 220.66 94.84L212.34 104.36C211.22 103.187 210.02 102.173 208.74 101.32C207.513 100.413 206.153 99.72 204.66 99.24C203.167 98.76 201.567 98.52 199.86 98.52C197.727 98.52 195.7 98.92 193.78 99.72C191.913 100.467 190.26 101.56 188.82 103C187.433 104.387 186.34 106.093 185.54 108.12C184.74 110.147 184.34 112.413 184.34 114.92C184.34 117.373 184.74 119.613 185.54 121.64C186.34 123.613 187.46 125.32 188.9 126.76C190.34 128.2 192.073 129.293 194.1 130.04C196.18 130.787 198.473 131.16 200.98 131.16C202.687 131.16 204.313 130.92 205.86 130.44C207.407 129.96 208.82 129.32 210.1 128.52C211.433 127.667 212.607 126.707 213.62 125.64L220.18 136.04C218.847 137.533 217.06 138.867 214.82 140.04C212.633 141.213 210.18 142.147 207.46 142.84C204.793 143.48 202.1 143.8 199.38 143.8ZM234.287 143V87H273.327V98.6H247.487V131.4H274.127V143H234.287ZM240.687 120.04V109H269.727V120.04H240.687Z" fill="#006FDF"/>
<path d="M306.078 83C306.078 99.5685 317.271 113 331.078 113C317.271 113 306.078 126.431 306.078 143C306.078 126.431 294.885 113 281.078 113C294.885 113 306.078 99.5685 306.078 83Z" fill="#48A3FE" fill-opacity="0.42"/>
</svg>
